<!-- Generated by IcoMoon.io -->
<svg version="1.1" xmlns="http://www.w3.org/2000/svg" width="32" height="32" viewBox="0 0 32 32">
<title>calculator</title>
<path d="M23.467 27.2h-3.2c-0.295 0-0.533 0.239-0.533 0.533s0.238 0.533 0.533 0.533h3.2c0.295 0 0.533-0.239 0.533-0.533s-0.238-0.533-0.533-0.533z"></path>
<path d="M10.133 19.2c0.295 0 0.533-0.239 0.533-0.533v-1.067h1.067c0.295 0 0.533-0.239 0.533-0.533s-0.238-0.533-0.533-0.533h-1.067v-1.067c0-0.294-0.238-0.533-0.533-0.533s-0.533 0.239-0.533 0.533v1.067h-1.067c-0.295 0-0.533 0.239-0.533 0.533s0.238 0.533 0.533 0.533h1.067v1.067c0 0.294 0.238 0.533 0.533 0.533z"></path>
<path d="M26.667 21.867c0-0.294-0.238-0.533-0.533-0.533h-9.6v-6.933c0-0.294-0.238-0.533-0.533-0.533s-0.533 0.239-0.533 0.533v6.933h-9.6c-0.295 0-0.533 0.239-0.533 0.533s0.238 0.533 0.533 0.533h9.6v6.933c0 0.294 0.238 0.533 0.533 0.533s0.533-0.239 0.533-0.533v-6.933h9.6c0.295 0 0.533-0.239 0.533-0.533z"></path>
<path d="M28.267 27.2c0.295 0 0.533-0.239 0.533-0.533v-23.467c0-1.765-1.435-3.2-3.2-3.2h-19.2c-1.765 0-3.2 1.435-3.2 3.2v25.6c0 1.765 1.435 3.2 3.2 3.2h19.2c1.765 0 3.2-1.435 3.2-3.2 0-0.294-0.238-0.533-0.533-0.533s-0.533 0.239-0.533 0.533c0 1.177-0.957 2.133-2.133 2.133h-19.2c-1.177 0-2.133-0.957-2.133-2.133v-25.6c0-1.177 0.957-2.133 2.133-2.133h19.2c1.177 0 2.133 0.957 2.133 2.133v23.467c0 0.294 0.238 0.533 0.533 0.533z"></path>
<path d="M23.467 25.067h-3.2c-0.295 0-0.533 0.239-0.533 0.533s0.238 0.533 0.533 0.533h3.2c0.295 0 0.533-0.239 0.533-0.533s-0.238-0.533-0.533-0.533z"></path>
<path d="M25.6 12.267v-8.533c0-0.294-0.238-0.533-0.533-0.533h-18.133c-0.295 0-0.533 0.239-0.533 0.533v8.533c0 0.294 0.238 0.533 0.533 0.533h18.133c0.295 0 0.533-0.239 0.533-0.533zM24.533 11.733h-17.067v-7.467h17.067v7.467z"></path>
<path d="M20.267 16.533c-0.295 0-0.533 0.239-0.533 0.533s0.238 0.533 0.533 0.533h3.2c0.295 0 0.533-0.239 0.533-0.533s-0.238-0.533-0.533-0.533h-3.2z"></path>
<path d="M12.11 24.69c-0.209-0.209-0.546-0.209-0.754 0l-1.223 1.223-1.223-1.223c-0.209-0.209-0.546-0.209-0.754 0s-0.209 0.546 0 0.754l1.223 1.223-1.223 1.223c-0.209 0.209-0.209 0.546 0 0.754 0.104 0.104 0.241 0.156 0.377 0.156s0.273-0.052 0.377-0.156l1.223-1.223 1.223 1.223c0.104 0.104 0.241 0.156 0.377 0.156s0.273-0.052 0.377-0.156c0.209-0.209 0.209-0.546 0-0.754l-1.223-1.223 1.223-1.223c0.209-0.209 0.209-0.546 0-0.754z"></path>
<path d="M10.133 9.6c0.295 0 0.533-0.239 0.533-0.533v-2.133c0-0.294-0.238-0.533-0.533-0.533s-0.533 0.239-0.533 0.533v2.133c0 0.294 0.238 0.533 0.533 0.533z"></path>
</svg>
